<?xml version="1.0" encoding="utf-8"?>
<!-- Generator: Adobe Illustrator 24.1.2, SVG Export Plug-In . SVG Version: 6.00 Build 0)  -->
<svg version="1.1" id="Layer_1" xmlns="http://www.w3.org/2000/svg" xmlns:xlink="http://www.w3.org/1999/xlink" x="0px" y="0px"
	 viewBox="0 0 768.4 765.1" style="enable-background:new 0 0 768.4 765.1;" xml:space="preserve">
<g>
	<path d="M98.8,301h21.2v146.3H190V465H98.8V301z"/>
	<path d="M344.3,381.3c0,56.5-34.3,86.4-76.2,86.4c-43.3,0-73.7-33.6-73.7-83.2c0-52.1,32.4-86.2,76.2-86.2
		C315.4,298.3,344.3,332.6,344.3,381.3z M217,384c0,35,19,66.4,52.3,66.4c33.6,0,52.6-30.9,52.6-68.1c0-32.6-17-66.7-52.3-66.7
		C234.6,315.6,217,348,217,384z"/>
	<path d="M496.7,457.7c-9.5,3.4-28.2,9-50.4,9c-24.8,0-45.3-6.3-61.3-21.7c-14.1-13.6-22.9-35.5-22.9-61.1
		c0.2-48.9,33.8-84.7,88.8-84.7c19,0,33.8,4.1,40.9,7.5l-5.1,17.3c-8.8-3.9-19.7-7.1-36.3-7.1c-39.9,0-66,24.8-66,66
		c0,41.6,25.1,66.2,63.3,66.2c13.9,0,23.4-1.9,28.2-4.4v-48.9h-33.3v-17h54V457.7z"/>
	<path d="M669.2,381.3c0,56.5-34.3,86.4-76.2,86.4c-43.3,0-73.7-33.6-73.7-83.2c0-52.1,32.4-86.2,76.2-86.2
		C640.3,298.3,669.2,332.6,669.2,381.3z M542,384c0,35,19,66.4,52.3,66.4c33.6,0,52.6-30.9,52.6-68.1c0-32.6-17-66.7-52.3-66.7
		C559.5,315.6,542,348,542,384z"/>
</g>
</svg>
